<svg width="135" height="13" xmlns="http://www.w3.org/2000/svg"><path d="M.494.228h2.304l2.124 5.796.774 2.232h.072l.756-2.232L8.612.228h2.304V12H8.954V6.618c0-.276.009-.576.027-.9.018-.324.039-.651.063-.981.024-.33.054-.654.09-.972.036-.318.066-.615.09-.891h-.072l-.954 2.682-2.034 5.346h-.972L3.158 5.556l-.936-2.682H2.15c.024.276.051.573.081.891l.09.972c.03.33.054.657.072.981.018.324.027.624.027.9V12H.494V.228zm18.41 0h2.088V12h-2.088V.228zm9.464 5.922c0-.96.141-1.821.423-2.583.282-.762.669-1.407 1.161-1.935A4.945 4.945 0 0 1 31.68.426a5.45 5.45 0 0 1 2.124-.414c.72 0 1.365.15 1.935.45.57.3 1.041.648 1.413 1.044l-1.17 1.296c-.3-.3-.621-.537-.963-.711-.342-.174-.741-.261-1.197-.261-.492 0-.939.099-1.341.297-.402.198-.75.48-1.044.846a3.98 3.98 0 0 0-.684 1.341 6.066 6.066 0 0 0-.243 1.782c0 1.344.291 2.397.873 3.159.582.762 1.371 1.143 2.367 1.143.528 0 .987-.102 1.377-.306.39-.204.753-.492 1.089-.864l1.17 1.278a5.077 5.077 0 0 1-1.638 1.269 4.636 4.636 0 0 1-2.034.441 5.528 5.528 0 0 1-2.106-.396 4.715 4.715 0 0 1-1.692-1.17c-.48-.516-.858-1.152-1.134-1.908-.276-.756-.414-1.62-.414-2.592zM44.348.228h2.088v4.734h4.77V.228h2.088V12h-2.088V6.78h-4.77V12h-2.088V.228zm21.938 6.948l-.414-1.44a49.19 49.19 0 0 1-.549-1.926 495 495 0 0 1-.513-1.962h-.072l-.504 1.971a42.332 42.332 0 0 1-.54 1.917l-.414 1.44h3.006zm.468 1.638h-3.96L61.876 12h-2.124L63.586.228h2.448L69.868 12h-2.196l-.918-3.186zM76.326.228h7.092v1.764h-5.004v3.006h4.23v1.764h-4.23v3.474h5.184V12h-7.272V.228zm14.684 0h2.088v10.008h4.896V12H91.01V.228zm22.726 0h2.304l2.124 5.796.774 2.232h.072l.756-2.232 2.088-5.796h2.304V12h-1.962V6.618c0-.276.009-.576.027-.9.018-.324.039-.651.063-.981.024-.33.054-.654.09-.972.036-.318.066-.615.09-.891h-.072l-.954 2.682-2.034 5.346h-.972L116.4 5.556l-.936-2.682h-.072c.024.276.051.573.081.891l.09.972c.03.33.054.657.072.981.018.324.027.624.027.9V12h-1.926V.228zm18.05 10.584c0-.408.129-.744.387-1.008s.579-.396.963-.396.702.132.954.396.378.6.378 1.008c0 .408-.126.744-.378 1.008s-.57.396-.954.396-.705-.132-.963-.396-.387-.6-.387-1.008z" fill="#FFF" fill-rule="evenodd"/></svg>