<?xml version="1.0" encoding="UTF-8"?>
<svg width="53px" height="14px" viewBox="0 0 53 14" version="1.1" xmlns="http://www.w3.org/2000/svg" xmlns:xlink="http://www.w3.org/1999/xlink">
    <title>Play</title>
    <g id="Play" stroke="none" stroke-width="1" fill="none" fill-rule="evenodd">
        <g transform="translate(0.357231, 2.060000)" fill="#FFFFFF" fill-rule="nonzero">
            <path d="M0,9.94 L0,0 L4.214,0 C4.67133333,0 5.09133333,0.0933333333 5.474,0.28 C5.85666667,0.466666667 6.19033333,0.718666667 6.475,1.036 C6.75966667,1.35333333 6.98133333,1.708 7.14,2.1 C7.29866667,2.492 7.378,2.89333333 7.378,3.304 C7.378,3.864 7.24733333,4.396 6.986,4.9 C6.72466667,5.404 6.36533333,5.81466667 5.908,6.132 C5.45066667,6.44933333 4.90933333,6.608 4.284,6.608 L1.932,6.608 L1.932,9.94 L0,9.94 Z M1.932,4.914 L4.172,4.914 C4.40533333,4.914 4.61533333,4.84866667 4.802,4.718 C4.98866667,4.58733333 5.138,4.39833333 5.25,4.151 C5.362,3.90366667 5.418,3.62133333 5.418,3.304 C5.418,2.95866667 5.355,2.66466667 5.229,2.422 C5.103,2.17933333 4.93966667,1.99733333 4.739,1.876 C4.53833333,1.75466667 4.32133333,1.694 4.088,1.694 L1.932,1.694 L1.932,4.914 Z" id="Shape"></path>
            <polygon id="Path" points="8.93738462 9.94 8.93738462 0 10.8693846 0 10.8693846 8.246 15.9373846 8.246 15.9373846 9.94"></polygon>
            <path d="M20.0307692,0 L21.9907692,0 L25.6447692,9.94 L23.6567692,9.94 L22.7327692,7.462 L19.2607692,7.462 L18.3507692,9.94 L16.3627692,9.94 L20.0307692,0 Z M22.3827692,6.104 L21.0107692,2.002 L19.5827692,6.104 L22.3827692,6.104 Z" id="Shape"></path>
            <polygon id="Path" points="27.0221538 0 29.4721538 4.676 31.9641538 0 34.0501538 0 30.4381538 6.468 30.4381538 9.94 28.5201538 9.94 28.5201538 6.44 24.9221538 0"></polygon>
        </g>
        <path d="M46.8944272,1.78885438 L52.2763932,12.5527864 C52.5233825,13.0467649 52.3231581,13.6474379 51.8291796,13.8944272 C51.6903242,13.9638549 51.5372111,14 51.381966,14 L40.618034,14 C40.0657492,14 39.618034,13.5522847 39.618034,13 C39.618034,12.8447549 39.6541791,12.6916418 39.7236068,12.5527864 L45.1055728,1.78885438 C45.3525621,1.29487588 45.9532351,1.09465154 46.4472136,1.34164079 C46.640741,1.43840449 46.7976635,1.59532698 46.8944272,1.78885438 Z" id="Triangle" fill="#FFFFFF" transform="translate(46.000000, 7.000000) rotate(90.000000) translate(-46.000000, -7.000000) "></path>
    </g>
</svg>